<?xml version="1.0" encoding="utf-8"?>
<!-- Generator: Adobe Illustrator 25.3.1, SVG Export Plug-In . SVG Version: 6.00 Build 0)  -->
<svg version="1.1" id="レイヤー_1" xmlns="http://www.w3.org/2000/svg" xmlns:xlink="http://www.w3.org/1999/xlink" x="0px"
	 y="0px" viewBox="0 0 121.5 87.1" style="enable-background:new 0 0 121.5 87.1;" xml:space="preserve">
<style type="text/css">
	.st0{fill:#F0F0F0;}
	.st1{fill:#D2D2D2;}
</style>
<rect x="14.1" y="12.8" class="st0" width="30.9" height="61.1"/>
<path class="st1" d="M29.8,1.2c5.9,0,11,1.5,15.3,4.4S52.7,13,55,18.9c2.3,6,3.5,14.3,3.5,25c0,10.8-1.2,19.2-3.6,25.2
	c-2.4,6-5.6,10.4-9.6,13.2c-4,2.8-9.1,4.2-15.2,4.2s-11.2-1.4-15.4-4.3c-4.2-2.8-7.4-7.1-9.8-12.9s-3.5-14-3.5-24.7
	c0-14.9,2.3-25.7,6.9-32.4C13.5,4.9,20.6,1.2,29.8,1.2z M30.1,15.9c-2.6,0-4.9,0.8-6.9,2.5S19.6,23,18.6,27
	C17.5,31.1,17,37.1,17,44.9c0,10.3,1.2,17.4,3.7,21.3c2.4,3.9,5.6,5.9,9.5,5.9c3.7,0,6.7-1.9,8.9-5.6c2.7-4.5,4-12,4-22.5
	c0-10.7-1.2-18-3.6-22.1C37,18,33.9,15.9,30.1,15.9z M80.3,3.3h23.1v81.2H88V17.8H71.3C71.3,17.8,80.3,3.3,80.3,3.3z"/>
</svg>
