<?xml version="1.0" encoding="utf-8"?>
<!-- Generator: Adobe Illustrator 25.3.1, SVG Export Plug-In . SVG Version: 6.00 Build 0)  -->
<svg version="1.1" id="レイヤー_1" xmlns="http://www.w3.org/2000/svg" xmlns:xlink="http://www.w3.org/1999/xlink" x="0px"
	 y="0px" viewBox="0 0 122.5 87" style="enable-background:new 0 0 122.5 87;" xml:space="preserve">
<style type="text/css">
	.st0{fill:#F0F0F0;}
	.st1{fill:#D2D2D2;}
</style>
<rect x="14.1" y="12.8" class="st0" width="30.9" height="61.1"/>
<g id="レイヤー_1_1_">
	<path class="st1" d="M30.6,1.1c5.9,0,11,1.4,15.3,4.3s7.6,7.3,9.9,13.3c2.3,6,3.5,14.2,3.5,24.9s-1.2,19.1-3.5,25.1
		c-2.4,6-5.5,10.4-9.5,13.2c-4,2.8-9,4.2-15.1,4.2S20,84.7,15.9,81.9C11.6,79,8.3,74.7,6,69c-2.4-5.8-3.5-14-3.5-24.6
		c0-14.8,2.3-25.6,6.9-32.3C14.4,4.8,21.5,1.1,30.6,1.1z M31,15.8c-2.6,0-4.9,0.8-6.9,2.5s-3.5,4.5-4.6,8.6s-1.6,10-1.6,17.9
		c0,10.2,1.2,17.3,3.6,21.2s5.6,5.9,9.5,5.9c3.7,0,6.7-1.9,8.9-5.6c2.7-4.5,4-11.9,4-22.4c0-10.6-1.2-18-3.6-22
		C37.9,17.8,34.8,15.8,31,15.8z M82,29.2H67c0.4-8.7,3.1-15.6,8.2-20.6s11.6-7.5,19.5-7.5c4.9,0,9.2,1,13,3.1s6.8,5.1,9,9
		c2.3,3.9,3.4,7.9,3.4,11.9c0,4.8-1.4,10-4.1,15.5s-7.7,12.1-15,19.6l-9,9.6h28.8V84h-56v-7.4l25-25.5c6-6.1,10.1-11,12.1-14.8
		c2-3.7,3-7.1,3-10.1c0-3.1-1-5.7-3.1-7.7s-4.7-3.1-8-3.1s-6,1.2-8.2,3.7C83.3,21.7,82.2,25,82,29.2z"/>
</g>
</svg>
