<?xml version="1.0" encoding="utf-8"?>
<!-- Generator: Adobe Illustrator 25.3.1, SVG Export Plug-In . SVG Version: 6.00 Build 0)  -->
<svg version="1.1" id="レイヤー_1" xmlns="http://www.w3.org/2000/svg" xmlns:xlink="http://www.w3.org/1999/xlink" x="0px"
	 y="0px" viewBox="0 0 118.8 85" style="enable-background:new 0 0 118.8 85;" xml:space="preserve">
<style type="text/css">
	.st0{fill:#F0F0F0;}
	.st1{fill:#D2D2D2;}
</style>
<rect x="14.1" y="12.8" class="st0" width="30.9" height="61.1"/>
<path class="st1" d="M28.7,1.6c5.7,0,10.6,1.4,14.8,4.2c4.1,2.8,7.3,7.1,9.6,12.9s3.4,13.8,3.4,24.1c0,10.4-1.1,18.5-3.4,24.3
	c-2.3,5.8-5.4,10-9.2,12.7c-3.9,2.7-8.7,4.1-14.6,4.1s-10.8-1.4-14.8-4.1s-7.2-6.9-9.4-12.5c-2.3-5.6-3.4-13.5-3.4-23.8
	c0-14.4,2.2-24.8,6.7-31.2C13.1,5.1,19.9,1.6,28.7,1.6z M29.1,15.7c-2.5,0-4.7,0.8-6.7,2.4c-1.9,1.6-3.4,4.4-4.5,8.3
	c-1,3.9-1.5,9.7-1.5,17.3c0,9.9,1.2,16.7,3.5,20.5c2.4,3.8,5.4,5.7,9.2,5.7c3.6,0,6.5-1.8,8.6-5.4c2.6-4.3,3.9-11.6,3.9-21.7
	c0-10.3-1.2-17.4-3.5-21.3C35.7,17.7,32.7,15.7,29.1,15.7z M80.2,22.9H65.9c0.7-5.8,2.8-10.4,6.2-13.9C76.9,4,82.8,1.6,90,1.6
	c6.4,0,11.8,2,16.2,6.1c4.3,4.1,6.5,8.9,6.5,14.5c0,3.5-0.9,6.7-2.8,9.5s-4.7,5.2-8.3,7c4.8,1.4,8.5,3.9,11.2,7.4s4,7.7,4,12.5
	c0,7-2.6,13-7.8,17.9c-5.2,4.9-11.8,7.3-19.8,7.3c-7.6,0-13.8-2.3-18.6-6.9c-4.8-4.6-7.4-10.8-7.9-18.8h14.7c0.6,4,2,7.1,4.2,9
	c2.2,2,4.9,3,8.3,3c3.5,0,6.4-1.1,8.6-3.4c2.3-2.2,3.4-5,3.4-8.2c0-3.5-1.5-6.5-4.6-9c-3.1-2.4-7.5-3.7-13.4-3.8V33
	c3.6-0.3,6.3-0.8,8-1.7c1.8-0.8,3.1-2,4.1-3.4c1-1.5,1.5-3,1.5-4.6c0-2.1-0.7-3.9-2.2-5.3s-3.4-2.1-5.9-2.1c-2.1,0-4.1,0.6-5.8,1.9
	C82,19.1,80.8,20.8,80.2,22.9L80.2,22.9z"/>
</svg>
