<svg xmlns="http://www.w3.org/2000/svg" viewBox="0 0 170.77 236.8"><defs><style>.cls-1,.cls-3{fill:#505050;}.cls-1{opacity:0.2;}.cls-2{fill:#fff;stroke:#505050;stroke-miterlimit:10;stroke-width:5px;}</style></defs><g id="レイヤー_2" data-name="レイヤー 2"><g id="レイヤー_1-2" data-name="レイヤー 1"><ellipse class="cls-1" cx="85.39" cy="225.85" rx="85.39" ry="10.95"/><polygon class="cls-2" points="62.54 197.71 34.96 197.71 31.51 26.38 65.99 26.38 62.54 197.71"/><path class="cls-3" d="M61.57,226.49H25.93a12.35,12.35,0,0,1-12.21-14.2l.65-4.31a28.27,28.27,0,0,1,27.94-24h2.88a28.26,28.26,0,0,1,27.94,24l.65,4.31A12.35,12.35,0,0,1,61.57,226.49Z"/><path class="cls-3" d="M70.26,173h-43a2.76,2.76,0,0,1-2.67-2.77L19,0H78.51L72.92,170.25A2.76,2.76,0,0,1,70.26,173Z"/><path class="cls-2" d="M56.19,212.42H31.31c-5.28,0-9.31-3.34-8.52-7l.45-2.14c1.46-6.85,9.75-11.91,19.51-11.91h2c9.75,0,18,5.06,19.5,11.91l.45,2.14C65.5,209.08,61.47,212.42,56.19,212.42Z"/><polygon class="cls-2" points="108.23 197.71 135.82 197.71 139.27 26.38 104.78 26.38 108.23 197.71"/><path class="cls-3" d="M109.2,226.49h35.65a12.36,12.36,0,0,0,12.21-14.2l-.65-4.31a28.27,28.27,0,0,0-27.95-24h-2.88a28.27,28.27,0,0,0-27.94,24L97,212.29A12.35,12.35,0,0,0,109.2,226.49Z"/><path class="cls-3" d="M100.52,173h43a2.74,2.74,0,0,0,2.66-2.77L151.79,0H92.26l5.6,170.25A2.74,2.74,0,0,0,100.52,173Z"/><path class="cls-2" d="M114.58,212.42h24.88c5.28,0,9.32-3.34,8.53-7l-.46-2.14c-1.46-6.85-9.75-11.91-19.5-11.91h-2c-9.76,0-18,5.06-19.51,11.91l-.45,2.14C105.27,209.08,109.31,212.42,114.58,212.42Z"/></g></g></svg>