<svg xmlns="http://www.w3.org/2000/svg" viewBox="0 0 129.25 48.78"><defs><style>.cls-1{fill:#505050;}</style></defs><g id="レイヤー_2" data-name="レイヤー 2"><g id="レイヤー_1-2" data-name="レイヤー 1"><path class="cls-1" d="M126.75,21.89h-5.89a24.39,24.39,0,0,0-48.53,0H56.83a24.39,24.39,0,0,0-48.52,0H2.5a2.5,2.5,0,0,0,0,5H8.31a24.39,24.39,0,0,0,48.52,0h15.5a24.39,24.39,0,0,0,48.53,0h5.89a2.5,2.5,0,0,0,0-5ZM32.57,43.78A19.39,19.39,0,1,1,52,24.39,19.41,19.41,0,0,1,32.57,43.78Zm64,0A19.39,19.39,0,1,1,116,24.39,19.41,19.41,0,0,1,96.59,43.78Z"/></g></g></svg>