<svg xmlns="http://www.w3.org/2000/svg" viewBox="0 0 188.57 271.71"><defs><style>.cls-1,.cls-3,.cls-4,.cls-5,.cls-7{fill:#fff;}.cls-2{fill:#505050;}.cls-3,.cls-4,.cls-5,.cls-6,.cls-7{stroke:#505050;}.cls-3,.cls-4,.cls-6,.cls-7{stroke-linecap:round;}.cls-3,.cls-5,.cls-6,.cls-7{stroke-miterlimit:10;}.cls-3,.cls-4,.cls-5,.cls-6{stroke-width:5px;}.cls-4{stroke-linejoin:round;}.cls-6{fill:none;}.cls-7{stroke-width:5px;}</style></defs><g id="レイヤー_2" data-name="レイヤー 2"><g id="レイヤー_1-2" data-name="レイヤー 1"><path class="cls-1" d="M185.34,271.7a99.57,99.57,0,0,0-77.35-37H80.58a99.61,99.61,0,0,0-77.36,37"/><path class="cls-2" d="M96.31,0h-4C48.36,0,12.78,32.85,12.78,73.38v53c0,.63,0,1.26.05,1.88h162.9c0-.62.05-1.25.05-1.88v-53C175.78,32.85,140.2,0,96.31,0Z"/><rect class="cls-1" x="13.36" y="106.72" width="160.88" height="33.31"/><path class="cls-3" d="M17.28,106.72c-6.37.91-11.34,8-11.34,16.66s5,15.75,11.34,16.65"/><path class="cls-3" d="M171.28,106.72c6.38.91,11.34,8,11.34,16.66s-5,15.75-11.34,16.65"/><rect class="cls-4" x="70.29" y="198.89" width="47.99" height="34.01"/><path class="cls-5" d="M94.28,12.12h0c-38.43,0-69.58,33.15-69.58,74v64.3A61.2,61.2,0,0,0,41,192.33h0c29.43,31.31,77.14,31.31,106.56,0h0a61.21,61.21,0,0,0,16.31-41.88V86.15C163.87,45.27,132.71,12.12,94.28,12.12Z"/><path class="cls-2" d="M125.84,8.84H73C49.25,16.63,29.58,34.65,18.26,58.2V89.73h72.2c28,0,50.78-20.87,50.78-46.61V15.63A87.45,87.45,0,0,0,125.84,8.84Z"/><path class="cls-2" d="M129.19,43.12c0,25.74,19.56,46.61,43.69,46.61h1.85c-1-29.18-12.24-55.11-29.36-72.57H129.19Z"/><path class="cls-4" d="M75.94,178.31a48.41,48.41,0,0,0,36.69.8"/><circle class="cls-2" cx="61.11" cy="174.06" r="2.86"/><circle class="cls-2" cx="67.52" cy="174.06" r="2.86"/><circle class="cls-2" cx="62.23" cy="117.81" r="5.71"/><circle class="cls-2" cx="126.25" cy="117.81" r="5.71"/><path class="cls-6" d="M89.84,156.06a7.57,7.57,0,0,0,8.88.08"/><path class="cls-7" d="M113.5,90.36a27.53,27.53,0,0,1,13.23-4,26.83,26.83,0,0,1,13.42,3.22"/><path class="cls-7" d="M48.41,90.36a27.53,27.53,0,0,1,13.23-4,26.83,26.83,0,0,1,13.42,3.22"/><path class="cls-2" d="M187.28,270.12A101.84,101.84,0,0,0,108,232.2H80.58a101.87,101.87,0,0,0-79.3,37.92L0,271.7H6.48a96.82,96.82,0,0,1,74.1-34.5H108a96.84,96.84,0,0,1,74.1,34.5h6.48Z"/><polygon class="cls-4" points="85.75 248.29 61.3 234.7 68.6 219.1 93.05 232.69 85.75 248.29"/><polygon class="cls-4" points="101.58 248.29 126.03 234.7 118.73 219.1 94.28 232.69 101.58 248.29"/><line class="cls-5" x1="93.91" y1="232.69" x2="93.66" y2="271.7"/></g></g></svg>