<svg xmlns="http://www.w3.org/2000/svg" viewBox="0 0 512 512"><path d="M227.6 218l19.2 60.1h-62.6L203 218c4.3-14.5 8-31.5 11.6-45.6h.7c3.6 14.1 7.6 30.7 12.3 45.6zM511.5 85.7v340.7c0 46.8-38.3 85.2-85.2 85.2H85.7C38.9 511.6.5 473.3.5 426.4V85.7C.5 38.9 38.8.5 85.7.5h340.7c46.8 0 85.1 38.3 85.1 85.2zM324.2 380.9l-79.3-244h-56.8l-78.2 244h46l21-69.1h77.5l22.1 69.1h47.7zm75.3-176.3h-44.9v176.3h44.9V204.6zm2.6-49.2c-.4-13.8-9.8-24.3-25-24.3-14.8 0-25 10.5-25 24.3 0 13.4 9.8 23.9 24.6 23.9 15.6 0 25.4-10.5 25.4-23.9z" fill="#505050"/></svg>