<svg xmlns="http://www.w3.org/2000/svg" viewBox="0 0 512 512"><path d="M1 .5C.4.6.5 1.3.5 2v509c169.4 1.1 340.8.2 511 .5V.6C341.3.5 171.2.5 1 .5zm258.9 451.7c-11.8 11.9-30.5 18.9-53.4 18.9-37.6 0-58.5-18.3-71.9-43.7 12.8-8.2 26-16.1 39.3-23.8 5.5 15.3 23.9 32.4 44.7 21.9 13.2-6.7 11.7-27 11.7-49.1V236.5c0-.7-.1-1.4.5-1.5h47.1v117.5c0 42.7 3 78.5-18 99.7zm210.8-42.3c-2.7 39.9-35.2 61.1-79.2 61.2-43.1.1-70.6-19-87.4-48.6 12.1-8.3 25.8-15 38.4-22.8 10.1 15.8 27.5 30.9 53.4 28.7 16.1-1.4 34.9-14.6 24.3-34.5-5.1-9.7-17.5-14.6-28.7-19.4-35.4-15.4-76.8-29.6-72.9-85 1.3-18.5 9.9-31.5 20.9-40.8 11.3-9.5 26.5-15.9 46.6-16.5 36.6-1.2 56.7 15.1 70.4 37.9-11.7 8.9-24.5 16.6-37.4 24.3-4.2-13-24.6-25.7-41.8-18-7.8 3.5-14.8 13.8-10.7 26.2 3.7 11.1 18.6 17.2 30.6 22.3 36.5 15.6 77.1 30.8 73.5 85z" fill-rule="evenodd" clip-rule="evenodd" fill="#505050"/></svg>