<svg xmlns="http://www.w3.org/2000/svg" viewBox="0 0 69.1 40.3"><defs><style>.cls-1{fill:#fff}</style></defs><g id="レイヤー_2" data-name="レイヤー 2"><g id="レイヤー_1-2" data-name="レイヤー 1"><g id="レイヤー_2-2" data-name="レイヤー 2"><g id="レイヤー_1-2-2" data-name="レイヤー 1-2"><path class="cls-1" d="M15.2 18.5V8.6a6.44 6.44 0 00-6.4-6.4 6.44 6.44 0 00-6.4 6.4v9.9"/><path class="cls-1" d="M21.6 8a6.44 6.44 0 016.4 6.4V13a6.45 6.45 0 0112.9 0v1.4A6.38 6.38 0 0147.3 8a6.44 6.44 0 016.4 6.4v2.8a6.44 6.44 0 016.4-6.4 6.44 6.44 0 016.4 6.4V27a6.44 6.44 0 01-6.4 6.4 6.44 6.44 0 01-6.4-6.4v2.8a6.44 6.44 0 01-6.4 6.4 6.44 6.44 0 01-6.4-6.4v1.4a6.45 6.45 0 11-12.9.5v-1.9a6.45 6.45 0 01-12.9 0V14.4A6.6 6.6 0 0121.6 8z"/><path d="M8.5 0a9 9 0 018.9 6.6 9 9 0 0110 1 13.65 13.65 0 011.7-1.7 8.93 8.93 0 0112.5 1.7 10.14 10.14 0 011.3-.9A8.89 8.89 0 0155.1 10a8.57 8.57 0 015.1-1.6 8.79 8.79 0 018.9 8.9v9.8a8.92 8.92 0 01-8.9 8.9 9.32 9.32 0 01-5.1-1.6 14.63 14.63 0 01-.9 1.3 9 9 0 01-12.6 1.1 9 9 0 01-14.2 0 8.55 8.55 0 01-5.7 2.1 8.92 8.92 0 01-8.9-8.9V8.6a3.91 3.91 0 00-7.8 0v9.9H0V8.6A8.71 8.71 0 018.5 0zm9.2 29.9a3.91 3.91 0 007.8 0 2.5 2.5 0 015 0v1.8a3.91 3.91 0 007.8-.4v-1.4a2.5 2.5 0 115 0 3.91 3.91 0 007.8 0v-2.8a2.5 2.5 0 015 0v.4a3.91 3.91 0 004.1 3.7 4 4 0 003.7-4.1v-9.8a3.91 3.91 0 00-7.8 0 2.5 2.5 0 11-5 0v-3.2a3.91 3.91 0 10-7.8.4 2.5 2.5 0 01-5 0v-1.4a3.91 3.91 0 00-7.8 0v1.4a2.5 2.5 0 01-5 0v-.4a3.91 3.91 0 10-7.8.4v15.4z" fill="#505050"/></g></g></g></g></svg>