<?xml version="1.0" encoding="utf-8"?>
<!-- Generator: Adobe Illustrator 25.2.1, SVG Export Plug-In . SVG Version: 6.00 Build 0)  -->
<svg version="1.1" id="レイヤー_1" xmlns="http://www.w3.org/2000/svg" xmlns:xlink="http://www.w3.org/1999/xlink" x="0px"
	 y="0px" viewBox="0 0 100 100" style="enable-background:new 0 0 100 100;" xml:space="preserve">
<style type="text/css">
	.st0{fill:#F0F0F0;}
</style>
<circle class="st0" cx="33.6" cy="84.1" r="2.8"/>
<circle class="st0" cx="40.2" cy="84.1" r="2.8"/>
<path class="st0" d="M50,99.1c-27.1,0-49.1-22-49.1-49.1S22.9,0.9,50,0.9c27.1,0,49.1,22,49.1,49.1S77.1,99.1,50,99.1z M50,5.5
	C25.4,5.5,5.5,25.4,5.5,50s20,44.5,44.5,44.5c24.6,0,44.5-20,44.5-44.5S74.6,5.5,50,5.5z"/>
<path class="st0" d="M36.1,65.9H17.9c-3.8,0-7-3.1-7-7V41.8c0-3.8,3.1-7,7-7h23.5c1.3,0,2.3,1,2.3,2.3s-1,2.3-2.3,2.3H17.9
	c-1.3,0-2.4,1.1-2.4,2.4v17.1c0,1.3,1.1,2.4,2.4,2.4h18.2c1.3,0,2.3,1,2.3,2.3S37.4,65.9,36.1,65.9z"/>
<path class="st0" d="M50,91.4c-1.3,0-2.3-1-2.3-2.3V74.8h-5.1c-0.7,0-1.3-0.3-1.7-0.8c-0.4-0.5-0.6-1.2-0.5-1.9L47.7,34V11.2
	c0-1.3,1-2.3,2.3-2.3c1.3,0,2.3,1,2.3,2.3v23c0,0.1,0,0.3,0,0.4l-6.9,35.6H50c1.3,0,2.3,1,2.3,2.3v16.6C52.3,90.4,51.3,91.4,50,91.4
	z"/>
<path class="st0" d="M82.4,65.9h-30c-1.3,0-2.3-1-2.3-2.3s1-2.3,2.3-2.3h30c1.3,0,2.4-1.1,2.4-2.4V41.8c0-1.3-1.1-2.4-2.4-2.4H57.3
	c-1.3,0-2.3-1-2.3-2.3s1-2.3,2.3-2.3h25.1c3.8,0,7,3.1,7,7v17.1C89.4,62.7,86.2,65.9,82.4,65.9z"/>
</svg>
