<svg xmlns="http://www.w3.org/2000/svg" viewBox="0 0 512 512"><path d="M426.3.5H85.7C38.8.5.5 38.8.5 85.7v340.7c0 46.8 38.3 85.2 85.2 85.2h340.7c46.8 0 85.2-38.3 85.2-85.2V85.7C511.5 38.8 473.2.5 426.3.5zm-181 260c-17.7 17.7-45.6 26.1-77.1 26.1-8.3 0-15.9-.4-21.7-1.5V377h-44.2V136.4c15.9-2.9 38-5.1 68.1-5.1 32.6 0 56.5 6.9 72 19.9 14.5 11.9 23.9 31.1 23.9 53.9 0 23.2-7.2 42.4-21 55.4zM338 380.7c-21.4 0-40.5-5.1-53.6-12.3l8.7-32.2c10.1 6.2 29.3 12.7 45.2 12.7 19.5 0 28.2-8 28.2-19.5 0-11.9-7.2-18.1-29-25.7-34.4-11.9-48.9-30.8-48.5-51.4 0-31.1 25.7-55.4 66.6-55.4 19.5 0 36.6 5.1 46.7 10.5l-8.7 31.5c-7.6-4.3-21.7-10.1-37.3-10.1-15.9 0-24.6 7.6-24.6 18.5 0 11.2 8.3 16.7 30.8 24.6 31.9 11.6 46.7 27.9 47.1 53.9.1 31.7-24.9 54.9-71.6 54.9zM221.8 207c0 28.6-20.3 44.9-53.6 44.9-9 0-16.3-.4-21.7-1.8v-82.5c4.7-1.1 13.4-2.2 25.7-2.2 30.8-.1 49.6 14.4 49.6 41.6z" fill="#505050"/></svg>