<svg xmlns="http://www.w3.org/2000/svg" viewBox="0 0 512 512"><path d="M401.1 224c3.7 4.1 4.6 11.2 2.7 21.2-2 10.4-5.9 17.9-11.7 22.3-5.8 4.5-14.6 6.7-26.4 6.7h-17.8l11-56.4H379c10.9 0 18.3 2.1 22.1 6.2zm-251.3-6.2h-20.1l-11 56.4h17.8c11.8 0 20.6-2.2 26.4-6.7 5.8-4.5 9.7-11.9 11.7-22.3 1.9-10 1.1-17.1-2.7-21.2-3.6-4.1-11-6.2-22.1-6.2zM511.5 256c0 74.2-114.4 134.4-255.5 134.4S.5 330.2.5 256 114.9 121.6 256 121.6 511.5 181.8 511.5 256zm-313 9.3c3-5.4 5.2-11.5 6.5-18 3.1-16 .8-28.4-7-37.3-7.8-8.9-20.2-13.4-37.1-13.4h-56.4L78.3 331.3h29.3l7-35.8h25.1c11.1 0 20.2-1.2 27.4-3.5s13.7-6.2 19.5-11.7c4.9-4.6 8.9-9.6 11.9-15zm103.3 30.2l12.2-62.7c2.5-12.7.6-22-5.6-27.7s-17.4-8.5-33.8-8.5h-25.9l7-35.8h-29.1l-26.2 134.7h29.1l15-77.2h23.3c7.4 0 12.3 1.2 14.6 3.7 2.3 2.5 2.8 7.1 1.5 13.9l-11.6 59.6h29.5zM427 209.9c-7.8-8.9-20.2-13.4-37.1-13.4h-56.4l-26.2 134.7h29.3l7-35.8h25.1c11.1 0 20.2-1.2 27.4-3.5 7.2-2.3 13.7-6.2 19.5-11.7 4.9-4.5 8.9-9.5 11.9-15 3-5.4 5.2-11.5 6.5-18 3.1-15.9.8-28.4-7-37.3z" fill="#505050"/></svg>