<?xml version="1.0" encoding="utf-8"?>
<!-- Generator: Adobe Illustrator 25.3.1, SVG Export Plug-In . SVG Version: 6.00 Build 0)  -->
<svg version="1.1" id="レイヤー_1" xmlns="http://www.w3.org/2000/svg" xmlns:xlink="http://www.w3.org/1999/xlink" x="0px"
	 y="0px" viewBox="0 0 283.5 283.5" style="enable-background:new 0 0 283.5 283.5;" xml:space="preserve">
<style type="text/css">
	.st0{fill:none;stroke:#515050;stroke-width:5;stroke-linecap:round;stroke-linejoin:round;stroke-miterlimit:10;}
</style>
<g id="レイヤー_1_1_">
	<path class="st0" d="M112.7,129.4v13.1h58v-13.4c15.8-9.8,26.3-27.2,26.3-47.1c0-30.5-24.8-55.4-55.4-55.4S86.4,51.2,86.4,82
		C86.4,101.8,97,119.6,112.7,129.4z M131.2,142.5l-7.9-52.8 M152.3,142.5l8-52.8"/>
	<path class="st0" d="M123.3,89.3l10.5,8l8-8l7.8,8l10.7-8 M112.7,142.5h58v15.8h-58V142.5z M118,158.4h47.4v15.8H118V158.4z"/>
	<path class="st0" d="M123.3,174.2h36.9V190h-36.9L123.3,174.2z"/>
</g>
</svg>
