<?xml version="1.0" encoding="utf-8"?>
<!-- Generator: Adobe Illustrator 25.3.1, SVG Export Plug-In . SVG Version: 6.00 Build 0)  -->
<svg version="1.1" id="レイヤー_1" xmlns="http://www.w3.org/2000/svg" xmlns:xlink="http://www.w3.org/1999/xlink" x="0px"
	 y="0px" viewBox="0 0 283.5 283.5" style="enable-background:new 0 0 283.5 283.5;" xml:space="preserve">
<style type="text/css">
	.st0{fill:none;stroke:#515050;stroke-width:5;stroke-linecap:round;stroke-linejoin:round;stroke-miterlimit:10;}
	.st1{fill:none;stroke:#515050;stroke-width:5;stroke-miterlimit:10;}
</style>
<g>
	<path class="st0" d="M35.6,87.3h212.2V190H35.6V87.3z M56.2,87.3V59.9h47.9V35.8H69.8V25.5"/>
	<path class="st1" d="M45.9,111.1h13.6 M66.5,111.1h13.6 M86.9,111.1h13.7 M107.4,111.1h13.8 M128,111.1h13.8 M148.6,111.1h13.6
		 M169.2,111.1h13.6 M189.6,111.1h13.7 M210.1,111.1h13.8 M45.9,165.9h13.6 M66.5,165.9h13.6 M86.9,165.9H176 M203.3,165.9h13.8
		 M223.9,165.9h13.6 M182.8,165.9h13.7 M59.5,138.5h13.8 M80.1,138.5h13.7 M100.6,138.5h13.8 M121.2,138.5h13.6 M141.8,138.5h13.6
		 M162.2,138.5H176 M182.8,138.5h13.7 M203.3,138.5h13.8 M223.9,138.5h13.6"/>
</g>
</svg>
