<svg xmlns="http://www.w3.org/2000/svg" viewBox="0 0 512 512"><path d="M194.7 246.9h121.8c33.9 0 61-27.9 61-61.9V68.8c0-33-27.9-57.9-61-63.4-20.9-3.5-42.7-5.1-63.5-5-20.8.1-40.7 1.9-58.3 5-51.6 9.1-61 28.2-61 63.4v46.5h121.9v15.5H88c-35.4 0-66.5 21.3-76.2 61.8C.7 239 .2 268 11.9 316.5c8.7 36.1 29.4 61.8 64.8 61.8h41.9v-55.7c0-40.2 34.8-75.7 76.1-75.7zm-7.6-162.6c-12.6 0-22.9-10.4-22.9-23.2s10.2-23.3 22.9-23.3c12.6 0 22.9 10.5 22.9 23.3-.1 12.9-10.3 23.2-22.9 23.2zm312.3 108.3c-8.8-35.3-25.5-61.8-61-61.8h-45.8v54.1c0 42-35.6 77.3-76.2 77.3H194.7c-33.3 0-61 28.5-61 62v116.1c0 33 28.7 52.5 61 61.9 38.6 11.4 75.6 13.4 121.8 0 30.7-8.9 61-26.8 61-61.9v-46.5H255.7v-15.5h182.8c35.4 0 48.6-24.7 61-61.8 12.6-38.2 12-74.9-.1-123.9zM324.2 424.8c12.6 0 22.9 10.4 22.9 23.2 0 12.9-10.2 23.3-22.9 23.3-12.6 0-22.9-10.5-22.9-23.3 0-12.9 10.3-23.2 22.9-23.2z" fill="#505050"/></svg>