<svg version="1.1" id="レイヤー_1" xmlns="http://www.w3.org/2000/svg" x="0" y="0" viewBox="0 0 69.2 40.6" xml:space="preserve"><style>.st0{fill:#fff}</style><g id="レイヤー_2_1_"><g id="レイヤー_1-2"><path class="st0" d="M53.9 18.8V8.9c0-3.5 2.9-6.4 6.4-6.4 3.5 0 6.4 2.9 6.4 6.4v9.9"/><path class="st0" d="M47.5 8.3c-3.5 0-6.4 2.9-6.4 6.4v-1.4C41 9.8 38 7 34.4 7.1c-3.4.1-6 2.8-6.2 6.2v1.4c0-3.6-2.9-6.4-6.4-6.4-3.5 0-6.4 2.9-6.4 6.4v2.8c0-3.5-2.9-6.4-6.4-6.4-3.5 0-6.4 2.9-6.4 6.4v9.8c0 3.5 2.9 6.4 6.4 6.4 3.5 0 6.4-2.9 6.4-6.4v2.8c0 3.5 2.9 6.4 6.4 6.4 3.5 0 6.4-2.9 6.4-6.4v1.4c-.1 3.5 2.6 6.5 6.2 6.7 3.5.1 6.5-2.6 6.7-6.2v-1.9c.1 3.5 3.1 6.3 6.7 6.2 3.4-.1 6-2.8 6.2-6.2V14.7c-.1-3.5-3-6.4-6.5-6.4z"/><path d="M60.6.3C56.4.2 52.7 3 51.7 6.9c-3.1-1.7-7.1-1.4-10 1-.5-.6-1.1-1.2-1.7-1.7-3.9-3-9.5-2.2-12.5 1.7-.4-.3-.9-.7-1.3-.9-4.3-2.5-9.7-1-12.2 3.3-1.5-1.1-3.3-1.6-5.1-1.6C4 8.6 0 12.6 0 17.6v9.8c0 4.9 4 8.9 8.9 8.9 1.8 0 3.6-.6 5.1-1.6.3.5.6.9.9 1.3 3.2 3.8 8.8 4.2 12.6 1.1 1.7 2.2 4.3 3.5 7.1 3.5s5.4-1.3 7.1-3.5c1.6 1.4 3.6 2.1 5.7 2.1 4.9 0 8.9-4 8.9-8.9V8.9c.1-2 1.7-3.6 3.7-3.7 2.2-.1 4 1.6 4.1 3.7v9.9h5V8.9c0-4.7-3.8-8.4-8.5-8.6zm-9.2 29.9c-.1 2-1.7 3.6-3.7 3.7-2.2.1-4-1.6-4.1-3.7 0-1.4-1.1-2.5-2.5-2.5s-2.5 1.1-2.5 2.5V32c-.1 2.2-2 3.8-4.1 3.7-2.2-.1-3.8-2-3.7-4.1v-1.4c0-1.4-1.1-2.5-2.5-2.5s-2.5 1.1-2.5 2.5c-.1 2-1.7 3.6-3.7 3.7-2.2.1-4-1.6-4.1-3.7v-2.8c0-1.4-1.1-2.5-2.5-2.5S13 26 13 27.4v.4c-.1 2.2-2 3.8-4.1 3.7s-3.8-2-3.7-4.1v-9.8c.1-2 1.7-3.6 3.7-3.7 2.2-.1 4 1.6 4.1 3.7 0 1.4 1.1 2.5 2.5 2.5S18 19 18 17.6v-2.8-.4c.1-2.2 2-3.8 4.1-3.7 2.2.1 3.8 2 3.7 4.1 0 1.4 1.1 2.5 2.5 2.5s2.5-1.1 2.5-2.5v-1.4c.1-2 1.7-3.6 3.7-3.7 2.2-.1 4 1.6 4.1 3.7v1.4c0 1.4 1.1 2.5 2.5 2.5s2.5-1.1 2.5-2.5v-.4c.1-2.2 2-3.8 4.1-3.7 2.2.1 3.8 2 3.7 4.1v15.4z" fill="#505050"/></g></g></svg>