<?xml version="1.0" encoding="utf-8"?>
<!-- Generator: Adobe Illustrator 25.3.1, SVG Export Plug-In . SVG Version: 6.00 Build 0)  -->
<svg version="1.1" id="レイヤー_1" xmlns="http://www.w3.org/2000/svg" xmlns:xlink="http://www.w3.org/1999/xlink" x="0px"
	 y="0px" viewBox="0 0 388.5 195.6" style="enable-background:new 0 0 388.5 195.6;" xml:space="preserve">
<style type="text/css">
	.st0{opacity:0.2;fill:#505050;enable-background:new    ;}
	.st1{fill:#FFFFFF;}
	.st2{fill:#DFD953;}
	.st3{fill:#8ACFD7;}
	.st4{fill:#515050;}
	.st5{fill:#EC8042;}
</style>
<g id="レイヤー_2_1_">
	<g id="レイヤー_1-2">
		<ellipse class="st0" cx="72.5" cy="184.6" rx="72.3" ry="10.9"/>
		<ellipse class="st0" cx="210.4" cy="184.6" rx="31.2" ry="10.9"/>
		<ellipse class="st0" cx="333" cy="184.6" rx="55.4" ry="10.9"/>
		<path class="st1" d="M202,125.8c-16.2,4.6-25.6,21.5-21,37.7s21.5,25.6,37.7,21s25.6-21.5,21-37.7c0,0,0,0,0,0
			C235.1,130.6,218.2,121.2,202,125.8z"/>
		<path class="st2" d="M224.3,152.7c-0.9-2.8-1.9-5.6-3-8.3c-1.8-4.4-3.5-8.5-3.7-13.1c-0.1-2.1-0.1-4,0-5.9
			c-10.6-2.5-21.8,0.8-29.3,8.7c0.9,1.4,1.9,3,2.8,4.7c2.2,4,3,8.4,3.7,13c0.4,2.9,1,5.8,1.8,8.7l0.2,0.6
			c2.4,7.3,10.1,11.4,17.5,9.3h0.1c7.5-2.2,11.9-9.8,9.9-17.4L224.3,152.7z"/>
		<path class="st2" d="M220.8,126.5c0,1.5,0,3.1,0.1,4.7c0.2,4,1.8,7.9,3.4,12c1.1,2.6,2.1,5.3,3,8.1l0,0l0.2,0.6
			c2.7,9.4-2.8,19.2-12.2,21.9h-0.1c-9.4,2.6-19.2-2.8-21.8-12.2l-0.2-0.6c-0.8-2.9-1.2-5.7-1.7-8.4c-0.7-4.4-1.4-8.5-3.4-12
			c-0.7-1.3-1.5-2.5-2.2-3.7c-10.1,13.5-7.4,32.6,6.1,42.8c13.5,10.1,32.6,7.4,42.8-6.1s7.4-32.6-6.1-42.8
			C226.3,129,223.7,127.5,220.8,126.5L220.8,126.5z"/>
		<circle class="st3" cx="331.5" cy="130.4" r="54"/>
		<path class="st4" d="M328.1,73.6L325,74c-25.2,3.1-45.2,22.6-49,47.6c-0.6,4.8-0.7,9.7-0.3,14.6c2.1,19.1,13.8,35.9,31,44.5
			c3.6,1.8,7.4,3.2,11.3,4.2c4.6,1.2,9.3,1.8,14,1.6c4.4,0.1,8.8-0.3,13-1.4c30.4-7.2,49.1-37.7,41.9-68.1
			c-1.5-6.5-4.2-12.6-7.9-18.1c-8.9-13.4-23.1-22.4-39.1-24.7C336,73.7,332,73.5,328.1,73.6z M336.5,79.4
			c21.3,2,39.1,17.1,44.5,37.7c1.2,4.2,1.7,8.5,1.6,12.8c0.1,7.6-1.6,15-4.9,21.8c-2.3,5-5.4,9.5-9.3,13.4c-6.6,7-15,11.9-24.4,14.1
			c-22.9,5.8-47-5.4-57.8-26.8c-3.2-6.4-5-13.4-5.2-20.6c-1.1-28,20.8-51.6,48.8-52.7C332.2,79.1,334.4,79.2,336.5,79.4L336.5,79.4z
			"/>
		<path class="st4" d="M360.2,96.6c-0.6,0.4-1.2,0.9-1.7,1.5c-0.6,1-0.7,1.2-0.7,3c-0.1,1.1,0.1,2.1,0.6,3.1
			c1.2,2.5,3.7,4.1,6.5,4.2c1.8,0.2,3.5-0.7,4.4-2.3c0.6-0.9,0.9-1.9,0.7-2.9c0.1-1-0.1-2.1-0.6-3c-0.9-1.6-2.2-2.9-3.8-3.7
			C363.8,95.8,361.9,95.9,360.2,96.6z"/>
		<path class="st4" d="M344.3,111.2c-4.1,2.1-3.3,8.7,1.4,11.1c0.9,0.6,2,0.8,3.1,0.8c1.9,0.2,3.7-0.9,4.5-2.7
			c0.5-0.8,0.7-1.9,0.6-2.8c-0.1-1.9-1-3.7-2.4-4.9c-1.1-1.3-2.8-2-4.4-1.9C346.1,110.6,345.1,110.8,344.3,111.2z"/>
		<path class="st4" d="M365.8,118.2c-4.1,2.3-3,8.9,1.9,11.2c3.2,1.5,6.6,0.2,7.6-2.7c0.4-1.6,0.2-3.3-0.4-4.9
			C373.1,118.3,368.8,116.5,365.8,118.2z"/>
		<path class="st4" d="M207.5,124.1c-12.1,1.1-22.4,9.2-26.5,20.6c-5.3,14.9,1.3,31.4,15.4,38.4c15.4,7.7,34.2,1.5,41.9-14
			s1.5-34.2-14-41.9C219.1,124.7,213.3,123.6,207.5,124.1L207.5,124.1z M215.4,130.3c13.8,2.8,22.6,16.3,19.8,30
			c-0.7,3.3-2,6.5-4,9.3c-1.9,2.6-4.2,4.8-6.8,6.7c-4.9,3.2-10.8,4.7-16.6,4.2c-14-1.4-24.1-13.9-22.7-27.9s13.9-24.1,27.9-22.7
			C213.8,130,214.6,130.1,215.4,130.3L215.4,130.3z"/>
		<circle class="st5" cx="71.9" cy="112.7" r="72.4"/>
		<path class="st4" d="M72.4,45.6c36.9,0,66.8,29.9,66.8,66.7s-29.9,66.8-66.7,66.8S5.7,149.2,5.7,112.3c0,0,0,0,0,0
			C5.7,75.5,35.6,45.6,72.4,45.6 M72.4,39.9C32.4,39.9,0,72.3,0,112.3s32.4,72.4,72.4,72.4s72.4-32.4,72.4-72.4c0,0,0,0,0,0
			C144.8,72.3,112.4,39.9,72.4,39.9C72.4,39.9,72.4,39.9,72.4,39.9z"/>
		<path class="st4" d="M141.2,103.9c0.9-1.9,1.6-3.9,2.2-5.8c-0.5-2.6-1.2-5.2-2-7.8c-0.8,4.1-2,8.2-3.8,12
			c-2.8,6.3-4.5,15.2-5.5,23.9c-2.2,0.2-4.9,0.4-7.8,0.5c1.9-14.8,1.2-28.7-2.4-41.2c-4.7-17-14.9-32-29-42.6
			c-3.5-1-7.1-1.8-10.7-2.3c8.6,4.7,16.1,11.1,22.1,18.8c9.9,12.4,20.6,34.1,16.1,67.4c-3.8,0-8.1-0.1-12.7-0.2
			c0.3-5.4-0.3-10.8-1.6-16.1c-2.6-10-12.5-20.4-20.4-27.4c-10.1-8.8-21.1-16.4-32.9-22.6c-10.4-5.5-18.2-6.5-23.7-6.1
			c-2.4,1.8-4.7,3.8-6.9,5.8l0.1,0.1c0.1-0.1,8.9-6.8,28.7,3.6c22.2,11.6,47.5,32.6,51.4,47.6c1.3,4.9,1.8,9.9,1.5,14.9
			c-23.4-1.3-46.7-4.2-69.6-8.8C10.6,112.6,3,106.5,0.6,102.8c-0.2,1.7-0.4,3.5-0.5,5.2c4.7,4.3,14.2,9.3,33.4,13.2
			c23.1,4.7,46.5,7.7,70,8.9c-1,7.5-4.4,14.5-9.8,19.8c-8.4,8.1-30.1,19.3-49.9,17.6c-11.2-1-24.2-9-30.3-13.1
			c2.4,3.4,5.1,6.5,8,9.4c6.5,3.5,14.5,6.9,22,7.5c1.5,0.1,3,0.2,4.5,0.2c19.8,0,39.8-10.6,48.3-18.8c6.1-6,10-13.9,11-22.3
			c4,0.2,7.7,0.2,11.2,0.2h1.3c-3.4,20-11.5,34.9-24.1,44.3c-7,5.1-15,8.4-23.5,9.9h0.2c6.4,0,12.8-0.8,19-2.5
			c2.3-1.3,4.5-2.7,6.6-4.3c13.6-10,22.3-26,25.8-47.4c3-0.1,5.7-0.2,8-0.5c-0.5,6.1-0.7,12.2-0.5,18.2c0.1,1.9,0.2,3.8,0.4,5.6
			c1.2-1.7,2.4-3.6,3.5-5.4c0-0.1,0-0.2,0-0.4c-0.2-6.2,0-12.4,0.6-18.6c2.5-0.4,5-1,7.5-1.8c0.3-1.5,0.6-3,0.8-4.5
			c-2.5,1.1-5.2,1.9-7.9,2.3C137,117.7,138.6,109.6,141.2,103.9z"/>
	</g>
</g>
</svg>
